<svg width="20" height="20" viewBox="0 0 20 20" fill="none" xmlns="http://www.w3.org/2000/svg">
<path d="M14.4108 4.41081C14.7363 4.08537 15.2638 4.08537 15.5892 4.41081C15.9146 4.73625 15.9146 5.26376 15.5892 5.5892L11.1784 10L15.5892 14.4108C15.9146 14.7362 15.9146 15.2638 15.5892 15.5892C15.2638 15.9146 14.7363 15.9146 14.4108 15.5892L10 11.1784L5.58921 15.5892C5.26377 15.9146 4.73626 15.9146 4.41083 15.5892C4.08539 15.2638 4.08539 14.7362 4.41083 14.4108L8.82163 10L4.41083 5.5892C4.08539 5.26376 4.08539 4.73625 4.41083 4.41081C4.73626 4.08537 5.26377 4.08537 5.58921 4.41081L10 8.82162L14.4108 4.41081Z" fill="#33322F"/>
</svg>
