<svg width="16" height="16" viewBox="0 0 16 16" fill="none" xmlns="http://www.w3.org/2000/svg">
<path d="M13.3333 6.66667C13.3333 4.80622 12.9606 3.5799 12.4928 2.52084C12.0025 2.99807 11.4764 3.36012 10.789 3.65691C9.81923 4.07562 8.54596 4.3573 6.65946 4.72136C6.65491 4.72224 6.65036 4.72318 6.64579 4.72396C5.65672 4.89293 4.76701 5.42729 4.15361 6.22136C3.54027 7.01534 3.24773 8.01085 3.33394 9.01042C3.35404 9.24319 3.39504 9.47236 3.45439 9.69532C3.80447 9.54463 4.18379 9.42694 4.59045 9.34636C5.31516 9.2026 6.07198 8.89718 6.73303 8.54232C7.39924 8.18467 7.9229 7.80102 8.19527 7.52865C8.45562 7.2683 8.87763 7.2683 9.13798 7.52865C9.39833 7.789 9.39833 8.21101 9.13798 8.47136C8.74374 8.8656 8.10086 9.32182 7.36389 9.71745C6.7144 10.0661 5.95675 10.3867 5.18225 10.5794L4.84957 10.6537C4.54539 10.7139 4.26417 10.8002 4.00647 10.9089C4.18097 11.1667 4.38655 11.4052 4.61975 11.6185C5.36015 12.2956 6.32802 12.6697 7.33134 12.6667H7.33329C10.4572 12.6667 13.3333 9.95319 13.3333 6.66667ZM14.6666 6.66667C14.6666 10.713 11.1702 13.9986 7.33459 13.9994L7.33525 14L7.33394 13.9994L7.33329 14V13.9994C5.99623 14.0029 4.70672 13.5046 3.72001 12.6022C3.40741 12.3163 3.13252 11.9963 2.89905 11.6504C2.3088 12.2545 1.99996 13.0699 1.99996 14C1.99996 14.3682 1.70148 14.6667 1.33329 14.6667C0.965103 14.6667 0.666626 14.3682 0.666626 14C0.666626 12.542 1.24266 11.2729 2.27991 10.4095C2.13739 9.99745 2.04392 9.56678 2.00582 9.12566C1.89075 7.79278 2.28044 6.465 3.09827 5.40625C3.91321 4.3513 5.09379 3.64008 6.40686 3.41211L7.0885 3.27865C8.59701 2.977 9.54856 2.74025 10.2604 2.43295C11.0276 2.10168 11.5295 1.68137 12.1477 0.914718L12.2044 0.852869C12.3455 0.717089 12.5407 0.649261 12.7382 0.670577C12.9638 0.694948 13.1615 0.832254 13.263 1.03516C13.951 2.41117 14.6666 3.97232 14.6666 6.66667Z" fill="white"/>
</svg>
