<svg width="48" height="48" viewBox="0 0 48 48" fill="none" xmlns="http://www.w3.org/2000/svg">
<path d="M23.5543 15.9347C23.5543 18.5612 23.6774 22.1732 25.1419 22.6617C26.6064 23.1503 27.6437 19.5131 29.8401 17.4133C31.3868 15.9347 30.6801 13.4133 28.6401 12.9733C26.6001 12.5334 23.5543 12.938 23.5543 15.9347Z" fill="#D3A900"/>
<path d="M33.4659 22.2182C30.8265 22.1933 26.609 22.9859 26.5974 24.5221C26.5859 26.0583 30.1694 26.0904 31.9607 28.8471C33.752 31.6038 36.7177 27.3033 37.0134 25.8152C37.3091 24.3271 37.3324 22.2547 33.4659 22.2182Z" fill="#D3A900"/>
<path d="M30.2801 30.4267C28.8892 28.6452 26.7438 26.0102 25.2722 26.4711C23.8005 26.9319 22.9561 30.1026 23.5543 33.0856C24.1734 36.1733 27.3325 36.368 28.6401 35.5867C29.9476 34.8053 32.4007 33.1428 30.2801 30.4267Z" fill="#D3A900"/>
<path d="M20.6395 31.1142C21.076 28.2276 23.8956 27.0666 22.9976 25.8152C22.0996 24.5639 18.3301 25.5125 15.8732 27.3123C13.4162 29.1121 13.6706 32.0879 14.8239 33.0856C15.9771 34.0832 20.0923 34.7321 20.6395 31.1142Z" fill="#D3A900"/>
<path d="M16.387 21.8488C18.7722 22.9746 22.0004 24.6951 22.9171 23.4609C23.8337 22.2267 21.7096 19.2156 20.6395 16.34C19.77 14.0035 15.4187 15.5229 14.8239 16.9208C14.2291 18.3187 13.3044 20.3938 16.387 21.8488Z" fill="#D3A900"/>
<path d="M10.163 21.7381C12.3732 21.9261 17.6886 23.411 17.5868 24.109C17.3768 25.5491 11.9727 24.877 11.099 24.8012C9.1759 24.6342 5.4193 25.3653 4.86959 25.1699C4.33278 24.9791 3.3 24.2923 4.3268 23.5011C5.35361 22.7099 8.20963 21.5719 10.163 21.7381Z" fill="#7A9B48"/>
<path d="M10.5513 28.1656C12.7254 27.3713 14.2772 27.3222 14.163 26.5129C14.1274 26.2599 11.9365 26.2408 10.7395 26.3223C8.1766 26.4968 6.60659 27.0469 6.00225 27.245C5.41209 27.4384 4.09317 28.6607 4.60866 29.7888C5.40349 31.5281 8.54493 28.8987 10.5513 28.1656Z" fill="#7A9B48"/>
<path d="M37.8736 19.5778C35.7189 20.2843 29.8778 21.1729 29.727 20.6812C29.2818 19.2295 34.6943 17.5341 35.5362 17.1874C37.3892 16.4243 39.9097 14.2665 40.6169 14.0476C41.602 13.7427 43.034 14.1947 42.4684 15.4175C41.9028 16.6403 39.8081 18.9436 37.8736 19.5778Z" fill="#7A9B48"/>
<path d="M34.0344 14.1794C32.5802 15.8319 31.2591 16.5296 31.8007 17.2346C31.97 17.4549 33.8834 16.5521 34.8786 15.9733C37.0094 14.7341 38.0724 13.5626 38.489 13.1244C38.8959 12.6964 39.3734 11.0052 38.309 10.1724C36.6678 8.88827 35.3765 12.6544 34.0344 14.1794Z" fill="#7A9B48"/>
</svg>
