<svg width="64" height="64" viewBox="0 0 64 64" fill="none" xmlns="http://www.w3.org/2000/svg">
<path d="M31.4056 21.2463C31.4056 24.7483 31.5698 29.5642 33.5225 30.2157C35.4751 30.8671 36.8582 26.0175 39.7867 23.2178C41.8489 21.2463 40.9067 17.8844 38.1867 17.2978C35.4667 16.7111 31.4056 17.2506 31.4056 21.2463Z" fill="#D3A900"/>
<path d="M44.6211 29.6243C41.1019 29.5911 35.4785 30.6479 35.4632 32.6961C35.4478 34.7444 40.2257 34.7872 42.6142 38.4628C45.0026 42.1385 48.9568 36.4044 49.3511 34.4203C49.7454 32.4361 49.7764 29.673 44.6211 29.6243Z" fill="#D3A900"/>
<path d="M40.3733 40.5689C38.5188 38.1936 35.6583 34.6803 33.6961 35.2947C31.734 35.9092 30.6081 40.1368 31.4056 44.1141C32.2311 48.2311 36.4433 48.4907 38.1867 47.4489C39.9301 46.4071 43.2008 44.1903 40.3733 40.5689Z" fill="#D3A900"/>
<path d="M27.5192 41.4856C28.1012 37.6367 31.8607 36.0887 30.6633 34.4203C29.466 32.7518 24.4401 34.0167 21.1642 36.4164C17.8882 38.8161 18.2274 42.7839 19.7651 44.1141C21.3028 45.4443 26.7897 46.3095 27.5192 41.4856Z" fill="#D3A900"/>
<path d="M21.8493 29.1318C25.0295 30.6328 29.3338 32.9269 30.556 31.2812C31.7782 29.6356 28.9461 25.6208 27.5192 21.7866C26.3599 18.6713 20.5581 20.6972 19.7651 22.5611C18.972 24.425 17.7392 27.1918 21.8493 29.1318Z" fill="#D3A900"/>
<path d="M13.5508 28.9841C16.4976 29.2348 23.5849 31.2147 23.4492 32.1454C23.1691 34.0655 15.9637 33.1694 14.7988 33.0682C12.2346 32.8456 7.22578 33.8204 6.49283 33.5599C5.77707 33.3055 4.40004 32.3897 5.76911 31.3348C7.13819 30.2799 10.9462 28.7625 13.5508 28.9841Z" fill="#7A9B48"/>
<path d="M14.0685 37.5541C16.9672 36.4951 19.0363 36.4297 18.8841 35.3505C18.8365 35.0132 15.9154 34.9877 14.3194 35.0964C10.9022 35.329 8.80882 36.0625 8.00304 36.3266C7.21616 36.5846 5.4576 38.2142 6.14492 39.7183C7.2047 42.0375 11.3933 38.5315 14.0685 37.5541Z" fill="#7A9B48"/>
<path d="M50.4981 26.1038C47.6252 27.0457 39.8371 28.2306 39.636 27.575C39.0424 25.6393 46.2591 23.3788 47.3816 22.9165C49.8524 21.899 53.2129 19.0219 54.1559 18.7301C55.4694 18.3235 57.3787 18.9262 56.6246 20.5567C55.8705 22.1871 53.0775 25.2581 50.4981 26.1038Z" fill="#7A9B48"/>
<path d="M45.3793 18.9059C43.4403 21.1092 41.6788 22.0394 42.401 22.9794C42.6267 23.2732 45.1779 22.0695 46.5048 21.2978C49.3459 19.6454 50.7633 18.0835 51.3188 17.4992C51.8612 16.9286 52.4979 14.6736 51.0788 13.5632C48.8905 11.851 47.1687 16.8726 45.3793 18.9059Z" fill="#7A9B48"/>
</svg>
