<svg width="16" height="16" viewBox="0 0 16 16" fill="none" xmlns="http://www.w3.org/2000/svg">
<path d="M11.5286 3.52865C11.789 3.2683 12.211 3.2683 12.4713 3.52865C12.7317 3.789 12.7317 4.21101 12.4713 4.47136L8.9427 8.00001L12.4713 11.5287C12.7317 11.789 12.7317 12.211 12.4713 12.4714C12.211 12.7317 11.789 12.7317 11.5286 12.4714L7.99999 8.94271L4.47134 12.4714C4.21099 12.7317 3.78899 12.7317 3.52864 12.4714C3.26829 12.211 3.26829 11.789 3.52864 11.5287L7.05728 8.00001L3.52864 4.47136C3.26829 4.21101 3.26829 3.789 3.52864 3.52865C3.78899 3.2683 4.21099 3.2683 4.47134 3.52865L7.99999 7.0573L11.5286 3.52865Z" fill="#B4311C"/>
</svg>
